<svg width="16" height="16" viewBox="0 0 16 16" fill="none" xmlns="http://www.w3.org/2000/svg">
<g clip-path="url(#clip0_5773_3041)">
<path d="M0.100098 13.4C3.8001 17.2 8.0001 15.5 9.7001 10.9C11.0001 7.50005 11.7001 5.20005 15.7001 3.70005C15.3001 3.50005 14.7001 3.10005 14.1001 2.80005C11.1001 4.20005 9.9001 6.60005 8.9001 9.60005C8.3001 11.5 7.8001 13.1 6.1001 14.2C4.8001 14.9 3.4001 15.6 0.100098 13.4Z" fill="white"/>
<path d="M8.5999 0.599951C7.8999 0.899951 7.2999 1.29995 6.7999 1.69995C6.4999 1.99995 5.9999 2.59995 5.7999 3.09995C5.4999 3.49995 5.2999 3.99995 5.0999 4.49995C4.7999 4.99995 4.3999 5.39995 3.8999 5.69995C4.2999 5.39995 4.5999 4.89995 4.7999 4.39995C4.9999 3.89995 5.0999 3.39995 5.2999 2.89995C5.4999 2.39995 5.7999 1.89995 6.0999 1.39995C6.2999 1.19995 6.4999 0.899951 6.6999 0.699951C6.9999 0.499951 7.1999 0.299951 7.3999 0.199951L8.5999 0.599951Z" fill="white"/>
<path d="M3.3999 12.1001C4.5999 11.9001 5.5999 11.3001 6.1999 10.4001C6.4999 10.0001 6.6999 9.5001 6.8999 8.9001C6.9999 8.3001 7.1999 7.7001 7.3999 7.2001C7.6999 6.1001 8.0999 5.0001 8.8999 4.0001C9.1999 3.5001 9.5999 3.0001 10.0999 2.6001C10.5999 2.2001 10.9999 1.9001 11.5999 1.6001L12.8999 2.2001C12.4999 2.3001 11.3999 3.1001 10.9999 3.4001C10.5999 3.7001 9.9999 4.1001 9.5999 4.5001C8.8999 5.3001 8.5999 6.2001 8.0999 7.2001C7.7999 7.8001 7.5999 8.4001 7.3999 8.9001C7.1999 9.4001 6.8999 10.1001 6.4999 10.5001C5.6999 11.5001 4.5999 12.1001 3.3999 12.1001Z" fill="white"/>
<path d="M10.6 1.20005C9.59995 1.70005 8.89995 2.20005 8.29995 2.70005C7.69995 3.30005 6.99995 4.30005 6.69995 5.00005C6.39995 5.80005 6.19995 6.60005 5.69995 7.30005C5.19995 8.10005 4.49995 8.70005 3.69995 9.00005C4.39995 8.60005 5.09995 8.00005 5.39995 7.20005C5.79995 6.50005 5.89995 5.60005 6.19995 4.80005C6.49995 4.00005 6.79995 3.20005 7.39995 2.50005C7.89995 1.80005 8.59995 1.30005 9.29995 0.800049L10.6 1.20005Z" fill="white"/>
</g>
<defs>
<clipPath id="clip0_5773_3041">
<rect width="16" height="16" fill="white"/>
</clipPath>
</defs>
</svg>
