<svg width="16" height="16" viewBox="0 0 16 16" fill="none" xmlns="http://www.w3.org/2000/svg">
    <path d="M5.15649 14.3745L8.00046 16L10.8434 14.3745L7.99939 12.749L5.15649 14.3745Z" fill="white"/>
    <path d="M10.8434 1.62549L8.00046 0L5.15649 1.62549L8.00046 3.24992L10.8434 1.62549Z" fill="white"/>
    <path d="M4.50027 10.7502C4.09399 10.5176 3.84397 10.0889 3.84397 9.6249V6.37499C3.84397 5.91102 4.09399 5.48225 4.50027 5.24973L5.37534 4.74949L6.68794 5.49931L5.15657 6.37392V7.34985H10.8445V6.37392L4.49596 2.74749C4.29443 2.63124 4.13278 2.46698 4.01963 2.27393L1 3.99968V11.9991L4.01963 13.7249C4.13171 13.5318 4.29443 13.3676 4.49596 13.2513L6.68686 11.9991L4.50027 10.7502Z" fill="white"/>
    <path d="M11.9803 2.27393C11.8682 2.46698 11.7055 2.63124 11.504 2.74749L9.31199 3.99968L11.4997 5.24973C11.9059 5.48225 12.156 5.91102 12.156 6.37499V9.6249C12.156 10.0889 11.9059 10.5176 11.4997 10.7502L10.6246 11.2504L9.31199 10.5006L10.8444 9.6249V8.65003H5.15649V9.62597L11.505 13.2524C11.7066 13.3687 11.8682 13.5329 11.9814 13.726L15.001 12.0013V3.99968L11.9814 2.27393H11.9803Z" fill="white"/>
</svg>
