<svg width="16" height="16" viewBox="0 0 16 16" fill="none" xmlns="http://www.w3.org/2000/svg">
<g id="Icon Arrow Down Right Arrow Up Left">
<g id="vector">
<path d="M2.31307 2.31307C2.11781 2.50833 2.11781 2.82492 2.31307 3.02018L6.12619 6.83329H3.99996C3.72382 6.83329 3.49996 7.05715 3.49996 7.33329C3.49996 7.60943 3.72382 7.83329 3.99996 7.83329H7.83329V3.99996C7.83329 3.72382 7.60943 3.49996 7.33329 3.49996C7.05715 3.49996 6.83329 3.72382 6.83329 3.99996V6.12619L3.02018 2.31307C2.82492 2.11781 2.50834 2.11781 2.31307 2.31307Z" fill="#C0C0C0"/>
<path d="M12 9.16663C12.2761 9.16663 12.5 8.94277 12.5 8.66663C12.5 8.39048 12.2761 8.16663 12 8.16663H8.16663V12C8.16663 12.2761 8.39048 12.5 8.66663 12.5C8.94277 12.5 9.16663 12.2761 9.16663 12V9.87373L12.9797 13.6868C13.175 13.8821 13.4916 13.8821 13.6868 13.6868C13.8821 13.4916 13.8821 13.175 13.6868 12.9797L9.87373 9.16663H12Z" fill="#C0C0C0"/>
</g>
</g>
</svg>
