<svg width="16" height="16" viewBox="0 0 16 16" fill="none" xmlns="http://www.w3.org/2000/svg">
<g id="Icon Arrow Up Left Arrow Down Right">
<g id="vector">
<path d="M6.50033 2.6665C6.50033 2.39036 6.27647 2.1665 6.00033 2.1665H2.16699V5.99984C2.16699 6.27598 2.39085 6.49984 2.66699 6.49984C2.94313 6.49984 3.16699 6.27598 3.16699 5.99984V3.87361L6.64677 7.35339L7.35388 6.64628L3.8741 3.1665H6.00033C6.27647 3.1665 6.50033 2.94265 6.50033 2.6665Z" fill="#C0C0C0"/>
<path d="M8.64677 9.35339L12.1266 12.8332H10.0003C9.72418 12.8332 9.50032 13.057 9.50032 13.3332C9.50032 13.6093 9.72418 13.8332 10.0003 13.8332H13.8337V9.99984C13.8337 9.72369 13.6098 9.49984 13.3337 9.49984C13.0575 9.49984 12.8337 9.72369 12.8337 9.99984V12.1261L9.35388 8.64628L8.64677 9.35339Z" fill="#C0C0C0"/>
</g>
</g>
</svg>
